# xmcd CD database file
#
# Track frame offsets:
#	150
#	17167
#	28707
#	50858
#	74186
#	88820
#	101023
#	113398
#	137021
#	162282
#
# Disc length: 2374 seconds
#
# Revision: 0
# Processed by: cddbd v1.5.2PL0 Copyright (c) Steve Scherf et al.
# Submitted via: CDex 1.51
#
DISCID=8b09440a
DTITLE=B.B. KING - Collector's Edition cd-3
DYEAR=2008
DGENRE=Blues
TTITLE0=Sweet Little Angel
TTITLE1=Night Life
TTITLE2=Chains And Things
TTITLE3=Don't Answer The Door 
TTITLE4=Get Off My Back Woman
TTITLE5=How Blue Can You Get?
TTITLE6=I'm Gonna Do What They Do To Me
TTITLE7=Ghetto Woman
TTITLE8=So Excited
TTITLE9=(I Love You)For Sentimental Reasons
EXTD=YEAR: 2008
EXTT0=
EXTT1=
EXTT2=
EXTT3=
EXTT4=
EXTT5=
EXTT6=
EXTT7=
EXTT8=
EXTT9=
PLAYORDER=
